<mxfile host="app.diagrams.net" agent="Mozilla/5.0 (Windows NT 10.0; Win64; x64) AppleWebKit/537.36 (KHTML, like Gecko) Chrome/136.0.0.0 Safari/537.36" version="27.0.6">
  <diagram name="Page-1" id="qzvqXsZ5ZwBJdFictUcA">
    <mxGraphModel dx="1426" dy="783" grid="1" gridSize="10" guides="1" tooltips="1" connect="1" arrows="1" fold="1" page="1" pageScale="1" pageWidth="850" pageHeight="1100" math="0" shadow="0">
      <root>
        <mxCell id="0" />
        <mxCell id="1" parent="0" />
        <mxCell id="UMYcjgCTO4qiesuA8_Jj-19" value="" style="endArrow=none;dashed=1;html=1;rounded=0;" edge="1" parent="1">
          <mxGeometry width="50" height="50" relative="1" as="geometry">
            <mxPoint x="220" y="720" as="sourcePoint" />
            <mxPoint x="220" y="190" as="targetPoint" />
          </mxGeometry>
        </mxCell>
        <mxCell id="cKce5plZVRJmbIAS20uQ-10" value="Giỏ hàng" style="shape=umlLifeline;perimeter=lifelinePerimeter;whiteSpace=wrap;html=1;container=1;dropTarget=0;collapsible=0;recursiveResize=0;outlineConnect=0;portConstraint=eastwest;newEdgeStyle={&quot;curved&quot;:0,&quot;rounded&quot;:0};" parent="1" vertex="1">
          <mxGeometry x="510.25" y="80" width="99.75" height="640" as="geometry" />
        </mxCell>
        <mxCell id="cKce5plZVRJmbIAS20uQ-11" value="" style="html=1;points=[[0,0,0,0,5],[0,1,0,0,-5],[1,0,0,0,5],[1,1,0,0,-5]];perimeter=orthogonalPerimeter;outlineConnect=0;targetShapes=umlLifeline;portConstraint=eastwest;newEdgeStyle={&quot;curved&quot;:0,&quot;rounded&quot;:0};fillColor=#ffff88;strokeColor=#36393d;" parent="1" vertex="1">
          <mxGeometry x="203.75" y="230" width="32.5" height="450" as="geometry" />
        </mxCell>
        <mxCell id="cKce5plZVRJmbIAS20uQ-12" value="" style="html=1;points=[[0,0,0,0,5],[0,1,0,0,-5],[1,0,0,0,5],[1,1,0,0,-5]];perimeter=orthogonalPerimeter;outlineConnect=0;targetShapes=umlLifeline;portConstraint=eastwest;newEdgeStyle={&quot;curved&quot;:0,&quot;rounded&quot;:0};fillColor=#ffff88;strokeColor=#36393d;" parent="1" vertex="1">
          <mxGeometry x="544" y="230" width="32.5" height="150" as="geometry" />
        </mxCell>
        <mxCell id="cKce5plZVRJmbIAS20uQ-13" value="Xác nhận đã thêm" style="html=1;verticalAlign=bottom;endArrow=open;dashed=1;endSize=8;curved=0;rounded=0;" parent="1" edge="1" source="cKce5plZVRJmbIAS20uQ-12">
          <mxGeometry x="-0.0234" y="-10" relative="1" as="geometry">
            <mxPoint x="439" y="350" as="sourcePoint" />
            <mxPoint x="236.25" y="350" as="targetPoint" />
            <mxPoint as="offset" />
          </mxGeometry>
        </mxCell>
        <mxCell id="cKce5plZVRJmbIAS20uQ-14" value="Thêm sách" style="html=1;verticalAlign=bottom;endArrow=block;curved=0;rounded=0;" parent="1" target="cKce5plZVRJmbIAS20uQ-12" edge="1">
          <mxGeometry width="80" relative="1" as="geometry">
            <mxPoint x="236.25" y="290" as="sourcePoint" />
            <mxPoint x="316.25" y="290" as="targetPoint" />
            <Array as="points">
              <mxPoint x="286.25" y="290" />
            </Array>
          </mxGeometry>
        </mxCell>
        <mxCell id="UMYcjgCTO4qiesuA8_Jj-4" value="Đơn hàng" style="shape=umlLifeline;perimeter=lifelinePerimeter;whiteSpace=wrap;html=1;container=1;dropTarget=0;collapsible=0;recursiveResize=0;outlineConnect=0;portConstraint=eastwest;newEdgeStyle={&quot;curved&quot;:0,&quot;rounded&quot;:0};size=40;" vertex="1" parent="1">
          <mxGeometry x="850" y="80" width="100" height="640" as="geometry" />
        </mxCell>
        <mxCell id="UMYcjgCTO4qiesuA8_Jj-5" value="" style="html=1;points=[[0,0,0,0,5],[0,1,0,0,-5],[1,0,0,0,5],[1,1,0,0,-5]];perimeter=orthogonalPerimeter;outlineConnect=0;targetShapes=umlLifeline;portConstraint=eastwest;newEdgeStyle={&quot;curved&quot;:0,&quot;rounded&quot;:0};fillColor=#ffff88;strokeColor=#36393d;" vertex="1" parent="1">
          <mxGeometry x="883.75" y="390" width="32.5" height="290" as="geometry" />
        </mxCell>
        <mxCell id="UMYcjgCTO4qiesuA8_Jj-6" value="Tạo đơn hàng" style="html=1;verticalAlign=bottom;endArrow=block;curved=0;rounded=0;" edge="1" parent="1" source="cKce5plZVRJmbIAS20uQ-11" target="UMYcjgCTO4qiesuA8_Jj-5">
          <mxGeometry width="80" relative="1" as="geometry">
            <mxPoint x="250" y="440" as="sourcePoint" />
            <mxPoint x="604" y="440" as="targetPoint" />
            <Array as="points">
              <mxPoint x="286.25" y="440" />
            </Array>
          </mxGeometry>
        </mxCell>
        <mxCell id="UMYcjgCTO4qiesuA8_Jj-7" value="Điền thông tin rồi xác nhận" style="html=1;verticalAlign=bottom;endArrow=block;curved=0;rounded=0;" edge="1" parent="1" target="UMYcjgCTO4qiesuA8_Jj-5">
          <mxGeometry width="80" relative="1" as="geometry">
            <mxPoint x="235.75" y="560" as="sourcePoint" />
            <mxPoint x="830" y="570" as="targetPoint" />
            <Array as="points">
              <mxPoint x="286" y="560" />
            </Array>
          </mxGeometry>
        </mxCell>
        <mxCell id="UMYcjgCTO4qiesuA8_Jj-8" value="Thanh toán số tiền" style="html=1;verticalAlign=bottom;endArrow=block;curved=0;rounded=0;" edge="1" parent="1" target="UMYcjgCTO4qiesuA8_Jj-5">
          <mxGeometry x="-0.016" y="-30" width="80" relative="1" as="geometry">
            <mxPoint x="236.25" y="630" as="sourcePoint" />
            <mxPoint x="780" y="630" as="targetPoint" />
            <Array as="points">
              <mxPoint x="286.5" y="630" />
            </Array>
            <mxPoint as="offset" />
          </mxGeometry>
        </mxCell>
        <mxCell id="UMYcjgCTO4qiesuA8_Jj-9" value="Yêu cầu điền thông tin nhận hàng" style="html=1;verticalAlign=bottom;endArrow=open;dashed=1;endSize=8;curved=0;rounded=0;" edge="1" parent="1" source="UMYcjgCTO4qiesuA8_Jj-5">
          <mxGeometry x="-0.0234" y="-10" relative="1" as="geometry">
            <mxPoint x="604" y="500" as="sourcePoint" />
            <mxPoint x="236.25" y="500" as="targetPoint" />
            <mxPoint as="offset" />
          </mxGeometry>
        </mxCell>
        <mxCell id="UMYcjgCTO4qiesuA8_Jj-10" value="Khách hàng" style="shape=umlActor;verticalLabelPosition=bottom;verticalAlign=top;html=1;outlineConnect=0;" vertex="1" parent="1">
          <mxGeometry x="187.5" y="30" width="65" height="130" as="geometry" />
        </mxCell>
      </root>
    </mxGraphModel>
  </diagram>
</mxfile>
